<svg xmlns="http://www.w3.org/2000/svg" xmlns:svg="http://www.w3.org/2000/svg" xmlns:xlink="http://www.w3.org/1999/xlink" version="1.0" height="690pt" width="930pt" viewBox="195 187 938 696" ><defs><style type="text/css">
            @font-face {
                font-family: 'noto_regular';
                src: url('https://app.creately.com/diagram/assets/fonts/noto/noto-regular.woff') format('woff'),
                     url('https://app.creately.com/diagram/assets/fonts/noto/noto-regular.woff2') format('woff2');
                font-weight: normal;
                font-style: normal;
            }
        p {
            margin: 0;
        }
        </style></defs><defs><style>
            span{ display: inline-block; }
        </style></defs><g id="IBSVPiHN0Pg"><g transform="translate(560 190)"><rect x="0" y="0" width="180" height="180" rx="2" ry="2" fill="rgb(255,255,255)" stroke="#24AFAF" stroke-width="2" stroke-linecap="round" stroke-linejoin="round"/><path d="M 0,28 L 180,28 M 0,110 L 180,110" fill="rgb(255,255,255)" stroke="#24AFAF" stroke-width="2" stroke-linecap="round" stroke-linejoin="round"/></g><g transform="translate(621.73, 195) rotate(0, 28.27, 0)" width="56.54" height="18"><text text-decoration="none" x="0" fill="#00001d" font-weight="bold" font-size="10pt" font-family="noto_regular"  y="17">Manager</text><text text-decoration="none" x="58" fill="#4b4b4b" font-size="10pt" font-family="noto_regular"  y="17"></text></g><g transform="translate(565, 223) rotate(0, 0, 0)" width="101.72" height="72"><text text-decoration="none" x="0" fill="#00001d" font-size="10pt" font-family="noto_regular"  y="14">-&#160;</text><text text-decoration="none" x="7" fill="#00001d" font-size="10pt" font-family="noto_regular"  y="14">Id:&#160;</text><text text-decoration="none" x="25" fill="#00001d" font-size="10pt" font-family="noto_regular"  y="14">Char</text><text text-decoration="none" x="53" fill="#00001d" font-size="10pt" font-family="noto_regular"  y="14"></text><text text-decoration="none" x="0" fill="#00001d" font-size="10pt" font-family="noto_regular"  y="33">-&#160;</text><text text-decoration="none" x="7" fill="#00001d" font-size="10pt" font-family="noto_regular"  y="33">Name:&#160;</text><text text-decoration="none" x="49" fill="#00001d" font-size="10pt" font-family="noto_regular"  y="33">Char</text><text text-decoration="none" x="77" fill="#00001d" font-size="10pt" font-family="noto_regular"  y="33"></text><text text-decoration="none" x="0" fill="#00001d" font-size="10pt" font-family="noto_regular"  y="52">-&#160;</text><text text-decoration="none" x="7" fill="#00001d" font-size="10pt" font-family="noto_regular"  y="52">PhNo:&#160;</text><text text-decoration="none" x="47" fill="#00001d" font-size="10pt" font-family="noto_regular"  y="52">Interger</text><text text-decoration="none" x="95" fill="#00001d" font-size="10pt" font-family="noto_regular"  y="52"></text><text text-decoration="none" x="0" fill="#00001d" font-size="10pt" font-family="noto_regular"  y="74">-&#160;</text><text text-decoration="none" x="7" fill="#00001d" font-size="10pt" font-family="noto_regular"  y="74">Address:&#160;</text><text text-decoration="none" x="61" fill="#00001d" font-size="10pt" font-family="noto_regular"  y="74">Char</text><text text-decoration="none" x="89" fill="#4b4b4b" font-size="10pt" font-family="noto_regular"  y="74"></text></g><g transform="translate(565, 305) rotate(0, 0, 0)" width="123.83" height="54.01"><text text-decoration="none" x="0" fill="#00001d" font-size="10pt" font-family="noto_regular"  y="14">+&#160;</text><text text-decoration="none" x="10" fill="#00001d" font-size="10pt" font-family="noto_regular"  y="14">MaintainLedger&#160;</text><text text-decoration="none" x="107" fill="#00001d" font-size="10pt" font-family="noto_regular"  y="14">()</text><text text-decoration="none" x="115" fill="#00001d" font-size="10pt" font-family="noto_regular"  y="14"></text><text text-decoration="none" x="0" fill="#00001d" font-size="10pt" font-family="noto_regular"  y="33">+&#160;</text><text text-decoration="none" x="10" fill="#00001d" font-size="10pt" font-family="noto_regular"  y="33">DoQualityCheck&#160;</text><text text-decoration="none" x="109" fill="#00001d" font-size="10pt" font-family="noto_regular"  y="33">()</text><text text-decoration="none" x="117" fill="#00001d" font-size="10pt" font-family="noto_regular"  y="33"></text><text text-decoration="none" x="0" fill="#00001d" font-size="10pt" font-family="noto_regular"  y="55">+&#160;</text><text text-decoration="none" x="10" fill="#00001d" font-size="10pt" font-family="noto_regular"  y="55">ReportToOwner&#160;</text><text text-decoration="none" x="109" fill="#00001d" font-size="10pt" font-family="noto_regular"  y="55">()</text><text text-decoration="none" x="117" fill="#4b4b4b" font-size="10pt" font-family="noto_regular"  y="55"></text></g></g><g id="Cd4aJMbvfdh"><g transform="translate(200 410)"><rect x="0" y="0" width="180" height="192.01" rx="2" ry="2" fill="rgb(255,255,255)" stroke="#24AFAF" stroke-width="2" stroke-linecap="round" stroke-linejoin="round"/><path d="M 0,28 L 180,28 M 0,74.00999999999999 L 180,74.00999999999999" fill="rgb(255,255,255)" stroke="#24AFAF" stroke-width="2" stroke-linecap="round" stroke-linejoin="round"/></g><g transform="translate(268.92, 415) rotate(0, 21.08, 0)" width="42.16" height="18"><text text-decoration="none" x="0" fill="#00001d" font-weight="bold" font-size="10pt" font-family="noto_regular"  y="17">Owner</text><text text-decoration="none" x="44" fill="#4b4b4b" font-size="10pt" font-family="noto_regular"  y="17"></text></g><g transform="translate(205, 443) rotate(0, 0, 0)" width="82.65" height="36.01"><text text-decoration="none" x="0" fill="#00001d" font-size="10pt" font-family="noto_regular"  y="14">-&#160;</text><text text-decoration="none" x="7" fill="#00001d" font-size="10pt" font-family="noto_regular"  y="14">Id:&#160;</text><text text-decoration="none" x="25" fill="#00001d" font-size="10pt" font-family="noto_regular"  y="14">Char</text><text text-decoration="none" x="53" fill="#00001d" font-size="10pt" font-family="noto_regular"  y="14"></text><text text-decoration="none" x="0" fill="#00001d" font-size="10pt" font-family="noto_regular"  y="36">-&#160;</text><text text-decoration="none" x="7" fill="#00001d" font-size="10pt" font-family="noto_regular"  y="36">Name:&#160;</text><text text-decoration="none" x="49" fill="#00001d" font-size="10pt" font-family="noto_regular"  y="36">Char</text><text text-decoration="none" x="77" fill="#4b4b4b" font-size="10pt" font-family="noto_regular"  y="36"></text></g><g transform="translate(205, 489.01) rotate(0, 0, 0)" width="150.16" height="108"><text text-decoration="none" x="0" fill="#00001d" font-size="10pt" font-family="noto_regular"  y="14">+&#160;</text><text text-decoration="none" x="10" fill="#00001d" font-size="10pt" font-family="noto_regular"  y="14">OrderStock&#160;</text><text text-decoration="none" x="81" fill="#00001d" font-size="10pt" font-family="noto_regular"  y="14">()</text><text text-decoration="none" x="89" fill="#00001d" font-size="10pt" font-family="noto_regular"  y="14"></text><text text-decoration="none" x="0" fill="#00001d" font-size="10pt" font-family="noto_regular"  y="33">+&#160;</text><text text-decoration="none" x="10" fill="#00001d" font-size="10pt" font-family="noto_regular"  y="33">SellStock&#160;</text><text text-decoration="none" x="66" fill="#00001d" font-size="10pt" font-family="noto_regular"  y="33">()</text><text text-decoration="none" x="74" fill="#00001d" font-size="10pt" font-family="noto_regular"  y="33"></text><text text-decoration="none" x="0" fill="#00001d" font-size="10pt" font-family="noto_regular"  y="52">+&#160;</text><text text-decoration="none" x="10" fill="#00001d" font-size="10pt" font-family="noto_regular"  y="52">MakePayment&#160;</text><text text-decoration="none" x="100" fill="#00001d" font-size="10pt" font-family="noto_regular"  y="52">()</text><text text-decoration="none" x="108" fill="#00001d" font-size="10pt" font-family="noto_regular"  y="52"></text><text text-decoration="none" x="0" fill="#00001d" font-size="10pt" font-family="noto_regular"  y="71">+&#160;</text><text text-decoration="none" x="10" fill="#00001d" font-size="10pt" font-family="noto_regular"  y="71">ReturnStock&#160;</text><text text-decoration="none" x="87" fill="#00001d" font-size="10pt" font-family="noto_regular"  y="71">()</text><text text-decoration="none" x="95" fill="#00001d" font-size="10pt" font-family="noto_regular"  y="71"></text><text text-decoration="none" x="0" fill="#00001d" font-size="10pt" font-family="noto_regular"  y="90">+&#160;</text><text text-decoration="none" x="10" fill="#00001d" font-size="10pt" font-family="noto_regular"  y="90">ReportQualityIssues&#160;</text><text text-decoration="none" x="134" fill="#00001d" font-size="10pt" font-family="noto_regular"  y="90">()</text><text text-decoration="none" x="142" fill="#00001d" font-size="10pt" font-family="noto_regular"  y="90"></text><text text-decoration="none" x="0" fill="#00001d" font-size="10pt" font-family="noto_regular"  y="112">+TrackOrders&#160;</text><text text-decoration="none" x="83" fill="#00001d" font-size="10pt" font-family="noto_regular"  y="112">()</text><text text-decoration="none" x="91" fill="#4b4b4b" font-size="10pt" font-family="noto_regular"  y="112"></text></g></g><g id="54qFhyNeMY7"><g transform="translate(570 410)"><rect x="0" y="0" width="180" height="140" rx="2" ry="2" fill="rgb(255,255,255)" stroke="#24AFAF" stroke-width="2" stroke-linecap="round" stroke-linejoin="round"/><path d="M 0,28 L 180,28 M 0,110 L 180,110" fill="rgb(255,255,255)" stroke="#24AFAF" stroke-width="2" stroke-linecap="round" stroke-linejoin="round"/></g><g transform="translate(618.295, 415) rotate(0, 41.705, 0)" width="83.41" height="18"><text text-decoration="none" x="22.705" fill="#00001d" font-weight="bold" font-size="10pt" font-family="noto_regular"  y="14">Order&#160;</text><text text-decoration="none" x="18.705" fill="#00001d" font-weight="bold" font-size="10pt" font-family="noto_regular"  y="36">Details</text><text text-decoration="none" x="64.705" fill="#4b4b4b" font-size="10pt" font-family="noto_regular"  y="36"></text></g><g transform="translate(575, 443) rotate(0, 0, 0)" width="153.4" height="72"><text text-decoration="none" x="0" fill="#00001d" font-size="10pt" font-family="noto_regular"  y="14">+&#160;</text><text text-decoration="none" x="10" fill="#00001d" font-size="10pt" font-family="noto_regular"  y="14">Id:&#160;</text><text text-decoration="none" x="28" fill="#00001d" font-size="10pt" font-family="noto_regular"  y="14">Char</text><text text-decoration="none" x="56" fill="#00001d" font-size="10pt" font-family="noto_regular"  y="14"></text><text text-decoration="none" x="0" fill="#00001d" font-size="10pt" font-family="noto_regular"  y="33">+&#160;</text><text text-decoration="none" x="10" fill="#00001d" font-size="10pt" font-family="noto_regular"  y="33">ProductId:&#160;</text><text text-decoration="none" x="76" fill="#00001d" font-size="10pt" font-family="noto_regular"  y="33">Char</text><text text-decoration="none" x="104" fill="#00001d" font-size="10pt" font-family="noto_regular"  y="33"></text><text text-decoration="none" x="0" fill="#00001d" font-size="10pt" font-family="noto_regular"  y="52">+&#160;</text><text text-decoration="none" x="10" fill="#00001d" font-size="10pt" font-family="noto_regular"  y="52">NoOfProducts:&#160;</text><text text-decoration="none" x="102" fill="#00001d" font-size="10pt" font-family="noto_regular"  y="52">Integer</text><text text-decoration="none" x="145" fill="#00001d" font-size="10pt" font-family="noto_regular"  y="52"></text><text text-decoration="none" x="0" fill="#00001d" font-size="10pt" font-family="noto_regular"  y="74">+&#160;</text><text text-decoration="none" x="10" fill="#00001d" font-size="10pt" font-family="noto_regular"  y="74">Amount:&#160;</text><text text-decoration="none" x="65" fill="#00001d" font-size="10pt" font-family="noto_regular"  y="74">Float</text><text text-decoration="none" x="95" fill="#4b4b4b" font-size="10pt" font-family="noto_regular"  y="74"></text></g><g transform="translate(575, 525) rotate(0, 0, 0)" width="137.77" height="18"><text text-decoration="none" x="0" fill="#00001d" font-size="10pt" font-family="noto_regular"  y="17">+&#160;</text><text text-decoration="none" x="10" fill="#00001d" font-size="10pt" font-family="noto_regular"  y="17">ShowOrderDetails&#160;</text><text text-decoration="none" x="121" fill="#00001d" font-size="10pt" font-family="noto_regular"  y="17">()</text><text text-decoration="none" x="129" fill="#4b4b4b" font-size="10pt" font-family="noto_regular"  y="17"></text></g></g><g id="uBGk74SOlkG"><g transform="translate(570 670)"><rect x="0" y="0" width="180" height="210" rx="2" ry="2" fill="rgb(255,255,255)" stroke="#24AFAF" stroke-width="2" stroke-linecap="round" stroke-linejoin="round"/><path d="M 0,28 L 180,28 M 0,128 L 180,128" fill="rgb(255,255,255)" stroke="#24AFAF" stroke-width="2" stroke-linecap="round" stroke-linejoin="round"/></g><g transform="translate(631.73, 675) rotate(0, 28.27, 0)" width="56.54" height="18"><text text-decoration="none" x="0" fill="#00001d" font-weight="bold" font-size="10pt" font-family="noto_regular"  y="17">Manager</text><text text-decoration="none" x="58" fill="#4b4b4b" font-size="10pt" font-family="noto_regular"  y="17"></text></g><g transform="translate(575, 703) rotate(0, 0, 0)" width="112.9" height="90"><text text-decoration="none" x="0" fill="#00001d" font-size="10pt" font-family="noto_regular"  y="14">-&#160;</text><text text-decoration="none" x="7" fill="#00001d" font-size="10pt" font-family="noto_regular"  y="14">Id:&#160;</text><text text-decoration="none" x="25" fill="#00001d" font-size="10pt" font-family="noto_regular"  y="14">Char</text><text text-decoration="none" x="53" fill="#00001d" font-size="10pt" font-family="noto_regular"  y="14"></text><text text-decoration="none" x="0" fill="#00001d" font-size="10pt" font-family="noto_regular"  y="33">-&#160;</text><text text-decoration="none" x="7" fill="#00001d" font-size="10pt" font-family="noto_regular"  y="33">Name:&#160;</text><text text-decoration="none" x="49" fill="#00001d" font-size="10pt" font-family="noto_regular"  y="33">Char</text><text text-decoration="none" x="77" fill="#00001d" font-size="10pt" font-family="noto_regular"  y="33"></text><text text-decoration="none" x="0" fill="#00001d" font-size="10pt" font-family="noto_regular"  y="52">-&#160;</text><text text-decoration="none" x="7" fill="#00001d" font-size="10pt" font-family="noto_regular"  y="52">Price:&#160;</text><text text-decoration="none" x="42" fill="#00001d" font-size="10pt" font-family="noto_regular"  y="52">Float</text><text text-decoration="none" x="72" fill="#00001d" font-size="10pt" font-family="noto_regular"  y="52"></text><text text-decoration="none" x="0" fill="#00001d" font-size="10pt" font-family="noto_regular"  y="71">-&#160;</text><text text-decoration="none" x="7" fill="#00001d" font-size="10pt" font-family="noto_regular"  y="71">MgfDate:&#160;</text><text text-decoration="none" x="64" fill="#00001d" font-size="10pt" font-family="noto_regular"  y="71">Date</text><text text-decoration="none" x="92" fill="#00001d" font-size="10pt" font-family="noto_regular"  y="71"></text><text text-decoration="none" x="0" fill="#00001d" font-size="10pt" font-family="noto_regular"  y="93">-&#160;</text><text text-decoration="none" x="7" fill="#00001d" font-size="10pt" font-family="noto_regular"  y="93">ExpiryDate:&#160;</text><text text-decoration="none" x="78" fill="#00001d" font-size="10pt" font-family="noto_regular"  y="93">Date</text><text text-decoration="none" x="106" fill="#4b4b4b" font-size="10pt" font-family="noto_regular"  y="93"></text></g><g transform="translate(575, 803) rotate(0, 0, 0)" width="122.58" height="72"><text text-decoration="none" x="0" fill="#00001d" font-size="10pt" font-family="noto_regular"  y="14">+&#160;</text><text text-decoration="none" x="10" fill="#00001d" font-size="10pt" font-family="noto_regular"  y="14">AddProducts&#160;</text><text text-decoration="none" x="91" fill="#00001d" font-size="10pt" font-family="noto_regular"  y="14">()</text><text text-decoration="none" x="99" fill="#00001d" font-size="10pt" font-family="noto_regular"  y="14"></text><text text-decoration="none" x="0" fill="#00001d" font-size="10pt" font-family="noto_regular"  y="33">+&#160;</text><text text-decoration="none" x="10" fill="#00001d" font-size="10pt" font-family="noto_regular"  y="33">DeleteProducts&#160;</text><text text-decoration="none" x="105" fill="#00001d" font-size="10pt" font-family="noto_regular"  y="33">()</text><text text-decoration="none" x="113" fill="#00001d" font-size="10pt" font-family="noto_regular"  y="33"></text><text text-decoration="none" x="0" fill="#00001d" font-size="10pt" font-family="noto_regular"  y="52">+&#160;</text><text text-decoration="none" x="10" fill="#00001d" font-size="10pt" font-family="noto_regular"  y="52">ModifyProducts&#160;</text><text text-decoration="none" x="109" fill="#00001d" font-size="10pt" font-family="noto_regular"  y="52">()</text><text text-decoration="none" x="117" fill="#00001d" font-size="10pt" font-family="noto_regular"  y="52"></text><text text-decoration="none" x="0" fill="#00001d" font-size="10pt" font-family="noto_regular"  y="74">+&#160;</text><text text-decoration="none" x="10" fill="#00001d" font-size="10pt" font-family="noto_regular"  y="74">ShowProducts&#160;</text><text text-decoration="none" x="100" fill="#00001d" font-size="10pt" font-family="noto_regular"  y="74">()</text><text text-decoration="none" x="108" fill="#4b4b4b" font-size="10pt" font-family="noto_regular"  y="74"></text></g></g><g id="aTHyk1mWVcG"><g transform="translate(950 400)"><rect x="0" y="0" width="180" height="180" rx="2" ry="2" fill="rgb(255,255,255)" stroke="#24AFAF" stroke-width="2" stroke-linecap="round" stroke-linejoin="round"/><path d="M 0,28 L 180,28 M 0,110 L 180,110" fill="rgb(255,255,255)" stroke="#24AFAF" stroke-width="2" stroke-linecap="round" stroke-linejoin="round"/></g><g transform="translate(1011.73, 405) rotate(0, 28.27, 0)" width="56.54" height="18"><text text-decoration="none" x="0" fill="#00001d" font-weight="bold" font-size="10pt" font-family="noto_regular"  y="17">Manager</text><text text-decoration="none" x="58" fill="#4b4b4b" font-size="10pt" font-family="noto_regular"  y="17"></text></g><g transform="translate(955, 433) rotate(0, 0, 0)" width="101.72" height="72"><text text-decoration="none" x="0" fill="#00001d" font-size="10pt" font-family="noto_regular"  y="14">-&#160;</text><text text-decoration="none" x="7" fill="#00001d" font-size="10pt" font-family="noto_regular"  y="14">Id:&#160;</text><text text-decoration="none" x="25" fill="#00001d" font-size="10pt" font-family="noto_regular"  y="14">Char</text><text text-decoration="none" x="53" fill="#00001d" font-size="10pt" font-family="noto_regular"  y="14"></text><text text-decoration="none" x="0" fill="#00001d" font-size="10pt" font-family="noto_regular"  y="33">-&#160;</text><text text-decoration="none" x="7" fill="#00001d" font-size="10pt" font-family="noto_regular"  y="33">Name:&#160;</text><text text-decoration="none" x="49" fill="#00001d" font-size="10pt" font-family="noto_regular"  y="33">Char</text><text text-decoration="none" x="77" fill="#00001d" font-size="10pt" font-family="noto_regular"  y="33"></text><text text-decoration="none" x="0" fill="#00001d" font-size="10pt" font-family="noto_regular"  y="52">-&#160;</text><text text-decoration="none" x="7" fill="#00001d" font-size="10pt" font-family="noto_regular"  y="52">PhNo:&#160;</text><text text-decoration="none" x="47" fill="#00001d" font-size="10pt" font-family="noto_regular"  y="52">Interger</text><text text-decoration="none" x="95" fill="#00001d" font-size="10pt" font-family="noto_regular"  y="52"></text><text text-decoration="none" x="0" fill="#00001d" font-size="10pt" font-family="noto_regular"  y="74">-&#160;</text><text text-decoration="none" x="7" fill="#00001d" font-size="10pt" font-family="noto_regular"  y="74">Address:&#160;</text><text text-decoration="none" x="61" fill="#00001d" font-size="10pt" font-family="noto_regular"  y="74">Char</text><text text-decoration="none" x="89" fill="#4b4b4b" font-size="10pt" font-family="noto_regular"  y="74"></text></g><g transform="translate(955, 515) rotate(0, 0, 0)" width="126.55" height="54.01"><text text-decoration="none" x="0" fill="#00001d" font-size="10pt" font-family="noto_regular"  y="14">+&#160;</text><text text-decoration="none" x="10" fill="#00001d" font-size="10pt" font-family="noto_regular"  y="14">ReceivePayment&#160;</text><text text-decoration="none" x="112" fill="#00001d" font-size="10pt" font-family="noto_regular"  y="14">()</text><text text-decoration="none" x="120" fill="#00001d" font-size="10pt" font-family="noto_regular"  y="14"></text><text text-decoration="none" x="0" fill="#00001d" font-size="10pt" font-family="noto_regular"  y="33">+&#160;</text><text text-decoration="none" x="10" fill="#00001d" font-size="10pt" font-family="noto_regular"  y="33">SupplyStock&#160;</text><text text-decoration="none" x="87" fill="#00001d" font-size="10pt" font-family="noto_regular"  y="33">()</text><text text-decoration="none" x="95" fill="#00001d" font-size="10pt" font-family="noto_regular"  y="33"></text><text text-decoration="none" x="0" fill="#00001d" font-size="10pt" font-family="noto_regular"  y="55">+&#160;</text><text text-decoration="none" x="10" fill="#00001d" font-size="10pt" font-family="noto_regular"  y="55">TrackOrders&#160;</text><text text-decoration="none" x="86" fill="#00001d" font-size="10pt" font-family="noto_regular"  y="55">()</text><text text-decoration="none" x="94" fill="#4b4b4b" font-size="10pt" font-family="noto_regular"  y="55"></text></g></g><g id="yAAkyx1nd9N"><mask id="7bdc9" x="276" y="311" width="298" height="113" maskUnits="userSpaceOnUse"><rect x="276" y="311" width="298" height="113" fill="white" /><rect x="519.28" y="313" width="21.439999999999998" height="24" fill="black" /><rect x="279.28" y="368" width="21.439999999999998" height="24" fill="black" />undefinedundefined</mask><g mask="url(#7bdc9)"><path d="M 560,325 L 290,325 L 290,410" fill="none" stroke="#9A9A9A" stroke-width="2" stroke-linecap="round" stroke-linejoin="round"/></g><g transform="translate(522.28, 316)" width="15.44" height="18"><text text-decoration="none" x="0.7199999999999998" fill="#4b4b4b" font-size="10pt" font-family="noto_regular"  y="17">*1</text><text text-decoration="none" x="14.719999999999999" fill="#4b4b4b" font-size="10pt" font-family="noto_regular"  y="17"></text></g><g transform="translate(282.28, 371)" width="15.44" height="18"><text text-decoration="none" x="0.7199999999999998" fill="#4b4b4b" font-size="10pt" font-family="noto_regular"  y="17">*1</text><text text-decoration="none" x="14.719999999999999" fill="#4b4b4b" font-size="10pt" font-family="noto_regular"  y="17"></text></g>undefinedundefined</g><g id="sSOh98Fo0Mq"><mask id="240c0" x="366" y="444" width="218" height="51" maskUnits="userSpaceOnUse"><rect x="366" y="444" width="218" height="51" fill="white" /><rect x="399.2799999896122" y="446.00078947368394" width="21.439999999999998" height="24" fill="black" /><rect x="525.7004155038331" y="468.8421074500202" width="28.6" height="24" fill="black" /></mask><g mask="url(#240c0)"><path d="M 380,458 L 475,458.0025 L 475,469 L 475,480.5 L 570,481" fill="none" stroke="#9A9A9A" stroke-width="2" stroke-linecap="round" stroke-linejoin="round"/></g><g transform="translate(402.2799999896122, 449.00078947368394)" width="15.44" height="18"><text text-decoration="none" x="0.7199999999999998" fill="#4b4b4b" font-size="10pt" font-family="noto_regular"  y="17">*1</text><text text-decoration="none" x="14.719999999999999" fill="#4b4b4b" font-size="10pt" font-family="noto_regular"  y="17"></text></g><g transform="translate(528.7004155038331, 471.8421074500202)" width="22.6" height="18"><text text-decoration="none" x="1.3000000000000007" fill="#4b4b4b" font-size="10pt" font-family="noto_regular"  y="17">*1..</text><text text-decoration="none" x="21.3" fill="#4b4b4b" font-size="10pt" font-family="noto_regular"  y="17"></text></g></g><g id="RqkfPqMgG9f"><mask id="a7a3b" x="736" y="431" width="228" height="28" maskUnits="userSpaceOnUse"><rect x="736" y="431" width="228" height="28" fill="white" /><rect x="769.28" y="433" width="21.439999999999998" height="24" fill="black" /><rect x="905.7" y="433" width="28.6" height="24" fill="black" /></mask><g mask="url(#a7a3b)"><path d="M 750,445 L 950,445" fill="none" stroke="#9A9A9A" stroke-width="2" stroke-linecap="round" stroke-linejoin="round"/></g><g transform="translate(772.28, 436)" width="15.44" height="18"><text text-decoration="none" x="0.7199999999999998" fill="#4b4b4b" font-size="10pt" font-family="noto_regular"  y="17">*1</text><text text-decoration="none" x="14.719999999999999" fill="#4b4b4b" font-size="10pt" font-family="noto_regular"  y="17"></text></g><g transform="translate(908.7, 436)" width="22.6" height="18"><text text-decoration="none" x="1.3000000000000007" fill="#4b4b4b" font-size="10pt" font-family="noto_regular"  y="17">*1..</text><text text-decoration="none" x="21.3" fill="#4b4b4b" font-size="10pt" font-family="noto_regular"  y="17"></text></g></g><g id="7FJ8wsbu7le"><mask id="5c028" x="274" y="588" width="310" height="149" maskUnits="userSpaceOnUse"><rect x="274" y="588" width="310" height="149" fill="white" /><rect x="277.28" y="620" width="21.439999999999998" height="24" fill="black" /><rect x="525.7000471554645" y="710.9468085942473" width="28.6" height="24" fill="black" /></mask><g mask="url(#5c028)"><path d="M 288,602 L 288,722.5 L 570,723" fill="none" stroke="#9A9A9A" stroke-width="2" stroke-linecap="round" stroke-linejoin="round"/></g><g transform="translate(280.28, 623)" width="15.44" height="18"><text text-decoration="none" x="0.7199999999999998" fill="#4b4b4b" font-size="10pt" font-family="noto_regular"  y="17">*1</text><text text-decoration="none" x="14.719999999999999" fill="#4b4b4b" font-size="10pt" font-family="noto_regular"  y="17"></text></g><g transform="translate(528.7000471554645, 713.9468085942473)" width="22.6" height="18"><text text-decoration="none" x="1.3000000000000007" fill="#4b4b4b" font-size="10pt" font-family="noto_regular"  y="17">*1..</text><text text-decoration="none" x="21.3" fill="#4b4b4b" font-size="10pt" font-family="noto_regular"  y="17"></text></g></g><g id="sXI2fa66KBQ"><mask id="7ca04" x="736" y="566" width="319" height="228" maskUnits="userSpaceOnUse"><rect x="736" y="566" width="319" height="228" fill="white" /><rect x="1030.28" y="598" width="21.439999999999998" height="24" fill="black" /><rect x="765.6999557162563" y="767.9484536843363" width="28.6" height="24" fill="black" /></mask><g mask="url(#7ca04)"><path d="M 1041,580 L 1041,779.5 L 750,780" fill="none" stroke="#9A9A9A" stroke-width="2" stroke-linecap="round" stroke-linejoin="round"/></g><g transform="translate(1033.28, 601)" width="15.44" height="18"><text text-decoration="none" x="0.7199999999999998" fill="#4b4b4b" font-size="10pt" font-family="noto_regular"  y="17">*1</text><text text-decoration="none" x="14.719999999999999" fill="#4b4b4b" font-size="10pt" font-family="noto_regular"  y="17"></text></g><g transform="translate(768.6999557162563, 770.9484536843363)" width="22.6" height="18"><text text-decoration="none" x="1.3000000000000007" fill="#4b4b4b" font-size="10pt" font-family="noto_regular"  y="17">*1..</text><text text-decoration="none" x="21.3" fill="#4b4b4b" font-size="10pt" font-family="noto_regular"  y="17"></text></g></g><g id="G1RFbvgnmxP"><g transform="translate(290 320)"><rect x="0" y="0" width="120" height="40" fill="rgba(255,255,255,0.01)" stroke="rgba(255,255,255,0.01)"/></g><g transform="translate(300, 330) rotate(0, 0, 0)" width="23.75" height="18"><text text-decoration="none" x="0" fill="#4b4b4b" font-size="10pt" font-family="noto_regular"  y="17">Has</text><text text-decoration="none" x="23" fill="#4b4b4b" font-size="10pt" font-family="noto_regular"  y="17"></text></g></g><g id="tdjQIqrMrqS"><g transform="translate(440 490)"><rect x="0" y="0" width="69.99999999999999" height="40" fill="rgba(255,255,255,0.01)" stroke="rgba(255,255,255,0.01)"/></g><g transform="translate(450, 500) rotate(0, 0, 0)" width="40.32" height="18"><text text-decoration="none" x="0" fill="#4b4b4b" font-size="10pt" font-family="noto_regular"  y="17">Tracks</text><text text-decoration="none" x="38" fill="#4b4b4b" font-size="10pt" font-family="noto_regular"  y="17"></text></g></g><g id="a3nxSoJvAZ5"><g transform="translate(820 460)"><rect x="0" y="0" width="69.99999999999999" height="40" fill="rgba(255,255,255,0.01)" stroke="rgba(255,255,255,0.01)"/></g><g transform="translate(830, 470) rotate(0, 0, 0)" width="40.32" height="18"><text text-decoration="none" x="0" fill="#4b4b4b" font-size="10pt" font-family="noto_regular"  y="17">Tracks</text><text text-decoration="none" x="38" fill="#4b4b4b" font-size="10pt" font-family="noto_regular"  y="17"></text></g></g><g id="4OFpCaYOv7d"><g transform="translate(300 670)"><rect x="0" y="0" width="69.99999999999999" height="40" fill="rgba(255,255,255,0.01)" stroke="rgba(255,255,255,0.01)"/></g><g transform="translate(310, 680) rotate(0, 0, 0)" width="43.54" height="18"><text text-decoration="none" x="0" fill="#4b4b4b" font-size="10pt" font-family="noto_regular"  y="17">Orders</text><text text-decoration="none" x="41" fill="#4b4b4b" font-size="10pt" font-family="noto_regular"  y="17"></text></g></g><g id="actj142jGgx"><g transform="translate(960 730)"><rect x="0" y="0" width="80" height="40" fill="rgba(255,255,255,0.01)" stroke="rgba(255,255,255,0.01)"/></g><g transform="translate(970, 740) rotate(0, 0, 0)" width="52.74" height="18"><text text-decoration="none" x="0" fill="#4b4b4b" font-size="10pt" font-family="noto_regular"  y="17">Supplies</text><text text-decoration="none" x="50" fill="#4b4b4b" font-size="10pt" font-family="noto_regular"  y="17"></text></g></g></svg>